<svg width="20" height="20" viewBox="0 0 20 20" fill="none" xmlns="http://www.w3.org/2000/svg">
<path fill-rule="evenodd" clip-rule="evenodd" d="M8.92029 2.93248C8.36168 2.93248 7.88644 3.32067 7.75304 3.84387H12.2386C12.1052 3.32067 11.63 2.93248 11.0714 2.93248H8.92029ZM13.5059 3.84387H15.1568C16.9076 3.84387 18.3334 5.2869 18.3334 7.05905C18.3334 7.05905 18.2833 7.80925 18.2667 8.85397C18.265 8.93667 18.225 9.01769 18.1591 9.06663C17.7581 9.36283 17.3912 9.60756 17.3579 9.62443C15.9738 10.5527 14.3655 11.2059 12.6522 11.5308C12.5405 11.5527 12.4304 11.4945 12.3737 11.3949C11.8935 10.5628 10.9964 10.0211 9.99585 10.0211C9.00202 10.0211 8.09657 10.5569 7.60215 11.3898C7.54463 11.4877 7.43624 11.5443 7.32535 11.5232C5.62617 11.1974 4.01786 10.5451 2.64217 9.63287L1.84177 9.07591C1.77507 9.03372 1.73339 8.95777 1.73339 8.87338C1.70837 8.44301 1.66669 7.05905 1.66669 7.05905C1.66669 5.2869 3.0924 3.84387 4.84328 3.84387H6.48576C6.64418 2.62025 7.66969 1.66667 8.92031 1.66667H11.0714C12.322 1.66667 13.3475 2.62025 13.5059 3.84387ZM18.0498 10.6794L18.0165 10.6962C16.3323 11.827 14.3063 12.5781 12.1802 12.8903C11.8801 12.9325 11.5799 12.7384 11.4966 12.4346C11.3131 11.7426 10.7212 11.287 10.0125 11.287H10.0042H9.98748C9.27879 11.287 8.68683 11.7426 8.50341 12.4346C8.42003 12.7384 8.11988 12.9325 7.81973 12.8903C5.69367 12.5781 3.66766 11.827 1.98348 10.6962C1.97514 10.6878 1.89177 10.6372 1.82507 10.6794C1.75003 10.7216 1.75003 10.8228 1.75003 10.8228L1.80839 15.1266C1.80839 16.8987 3.22577 18.3333 4.97664 18.3333H15.015C16.7659 18.3333 18.1832 16.8987 18.1832 15.1266L18.2499 10.8228C18.2499 10.8228 18.2499 10.7216 18.1749 10.6794C18.1332 10.654 18.0832 10.6625 18.0498 10.6794ZM10.6212 14.2152C10.6212 14.5696 10.346 14.8481 9.99587 14.8481C9.65403 14.8481 9.37055 14.5696 9.37055 14.2152V13.1266C9.37055 12.7806 9.65403 12.4937 9.99587 12.4937C10.346 12.4937 10.6212 12.7806 10.6212 13.1266V14.2152Z" fill="#5064B4"/>
</svg>
